<?xml version="1.0" encoding="UTF-8" standalone="no"?>
<svg
   xmlns:dc="http://purl.org/dc/elements/1.1/"
   xmlns:cc="http://creativecommons.org/ns#"
   xmlns:rdf="http://www.w3.org/1999/02/22-rdf-syntax-ns#"
   xmlns:svg="http://www.w3.org/2000/svg"
   xmlns="http://www.w3.org/2000/svg"
   xmlns:sodipodi="http://sodipodi.sourceforge.net/DTD/sodipodi-0.dtd"
   xmlns:inkscape="http://www.inkscape.org/namespaces/inkscape"
   version="1.0"
   preserveAspectRatio="xMidYMid meet"
   viewBox="0 0 600 600"
   id="svg86"
   sodipodi:docname="picasso.svg"
   width="600"
   height="600"
   inkscape:export-filename="/Users/gokhanaktas/Documents/cover.png"
   inkscape:export-xdpi="96"
   inkscape:export-ydpi="96"
   inkscape:version="1.0.2 (e86c8708, 2021-01-15)">
  <metadata
     id="metadata92">
    <rdf:RDF>
      <cc:Work
         rdf:about="">
        <dc:format>image/svg+xml</dc:format>
        <dc:type
           rdf:resource="http://purl.org/dc/dcmitype/StillImage" />
        <dc:title></dc:title>
      </cc:Work>
    </rdf:RDF>
  </metadata>
  <defs
     id="defs90">
    <inkscape:path-effect
       effect="simplify"
       id="path-effect4768"
       is_visible="true"
       steps="1"
       threshold="0.000408163"
       smooth_angles="360"
       helper_size="0"
       simplify_individual_paths="false"
       simplify_just_coalesce="false"
       simplifyindividualpaths="false"
       simplifyJustCoalesce="false"
       lpeversion="0" />
    <inkscape:path-effect
       effect="simplify"
       id="path-effect4764"
       is_visible="true"
       steps="1"
       threshold="0.000408163"
       smooth_angles="360"
       helper_size="0"
       simplify_individual_paths="false"
       simplify_just_coalesce="false"
       simplifyindividualpaths="false"
       simplifyJustCoalesce="false"
       lpeversion="0" />
    <inkscape:path-effect
       effect="simplify"
       id="path-effect4760"
       is_visible="true"
       steps="1"
       threshold="0.000408163"
       smooth_angles="360"
       helper_size="0"
       simplify_individual_paths="false"
       simplify_just_coalesce="false"
       simplifyindividualpaths="false"
       simplifyJustCoalesce="false"
       lpeversion="0" />
    <inkscape:path-effect
       effect="simplify"
       id="path-effect4752"
       is_visible="true"
       steps="1"
       threshold="0.000408163"
       smooth_angles="360"
       helper_size="0"
       simplify_individual_paths="false"
       simplify_just_coalesce="false"
       simplifyindividualpaths="false"
       simplifyJustCoalesce="false"
       lpeversion="0" />
    <inkscape:path-effect
       effect="simplify"
       id="path-effect4748"
       is_visible="true"
       steps="1"
       threshold="0.000408163"
       smooth_angles="360"
       helper_size="0"
       simplify_individual_paths="false"
       simplify_just_coalesce="false"
       simplifyindividualpaths="false"
       simplifyJustCoalesce="false"
       lpeversion="0" />
  </defs>
  <sodipodi:namedview
     pagecolor="#ffffff"
     bordercolor="#666666"
     borderopacity="1"
     objecttolerance="10"
     gridtolerance="10"
     guidetolerance="10"
     inkscape:pageopacity="0"
     inkscape:pageshadow="2"
     inkscape:window-width="1440"
     inkscape:window-height="794"
     id="namedview88"
     showgrid="false"
     inkscape:zoom="0.42916465"
     inkscape:cx="503.95181"
     inkscape:cy="321.97166"
     inkscape:window-x="0"
     inkscape:window-y="25"
     inkscape:window-maximized="0"
     inkscape:current-layer="g84"
     inkscape:document-rotation="0"
     showborder="true"
     inkscape:showpageshadow="false" />
  <g
     transform="matrix(0.1,0,0,-0.1,0,500)"
     id="g84">
    <g
       id="g192"
       transform="translate(500.00001,-500)">
      <path
         d="m 985.84712,4985.5991 c -2.7705,-7.3881 0,-31.3995 7.3882,-52.6403 6.4646,-21.2409 14.77618,-70.1872 17.54678,-108.0513 4.6176,-62.799 6.4646,-69.2636 25.8584,-72.0341 17.5468,-2.7706 20.3173,0.9234 20.3173,25.8584 0,15.6997 -7.3881,41.5581 -15.6997,58.1814 -8.3117,16.6233 -15.6998,53.5638 -16.6233,84.9634 -0.9236,30.476 -2.7706,60.9519 -3.694,67.4166 -1.8471,15.6997 -27.70548,13.8527 -35.09368,-3.6941 z"
         id="path2"
         inkscape:connector-curvature="0"
         style="fill:#000000;fill-opacity:1;stroke-width:1" />
      <path
         d="m 1370.9529,4967.1288 c -13.8527,-17.5467 -54.4873,-111.7453 -61.8755,-144.9919 -5.5411,-24.0113 -3.694,-28.6289 12.0057,-28.6289 10.1587,0 22.1644,5.5411 26.7819,12.0057 8.3117,9.2352 48.9463,149.6094 48.9463,166.2327 0,10.1587 -15.6997,7.3881 -25.8584,-4.6176 z"
         id="path4"
         inkscape:connector-curvature="0"
         style="fill:#000000;fill-opacity:1;stroke-width:1" />
      <path
         d="m 2626.9333,4939.4233 c -5.5411,-19.3938 -12.9293,-60.9519 -15.6999,-93.275 -4.6175,-48.9463 -1.847,-65.5696 14.7763,-99.7396 19.3938,-40.6346 19.3938,-46.1757 10.1586,-186.55 -29.5524,-412.8111 -32.323,-495.004 -25.8583,-751.7411 l 6.4645,-265.0488 -24.9349,-44.3287 c -13.8526,-24.0114 -35.0935,-60.0285 -47.0992,-78.4989 -18.4704,-27.7053 -21.2409,-36.9405 -12.0057,-52.6402 5.5411,-11.0822 16.6233,-19.3939 24.9349,-19.3939 12.0057,0 12.9292,-10.1586 7.3881,-76.6517 -4.6176,-65.5695 -3.694,-78.4987 9.2352,-89.5809 12.9292,-11.0822 17.5467,-9.2352 36.9405,14.7762 17.5468,21.2408 22.1644,23.0879 23.0879,10.1586 0,-9.2351 7.3881,-18.4703 16.6233,-22.1643 8.3117,-2.7705 35.0936,-25.8584 59.1049,-50.7933 38.7877,-40.6347 46.1758,-44.3288 85.887,-44.3288 34.17,0 46.1757,-4.6175 63.7225,-24.0113 25.8584,-30.4761 60.9519,-24.0114 60.9519,11.0821 0,17.5469 4.6177,22.1644 23.0879,22.1644 16.6233,0 23.0879,4.6175 23.0879,18.4703 0,12.0057 6.4646,18.4703 18.4703,18.4703 12.9292,0 18.4703,6.4646 18.4703,22.1643 0,14.7763 12.0057,32.3231 36.9406,51.7168 36.9406,28.6291 36.9406,28.6291 36.9406,7.3882 0,-11.0821 -2.7705,-36.9406 -5.5411,-55.4109 -5.5411,-31.3995 -8.3116,-34.1701 -30.476,-29.5524 -16.6233,3.694 -29.5524,0 -36.9405,-9.2352 -13.8528,-16.6233 -15.6999,-120.9805 -2.7706,-231.8022 5.5411,-50.7934 4.6176,-77.5753 -1.8471,-84.0399 -12.0056,-12.9293 -97.8925,-23.0879 -97.8925,-12.0057 0,4.6175 4.6175,8.3116 10.1586,8.3116 9.2352,0 4.6176,89.5809 -6.4645,132.0627 -5.5411,16.6233 -31.3996,22.1644 -31.3996,5.5411 0,-5.5411 -7.3881,-7.3882 -17.5467,-3.6941 -24.0115,7.3881 -36.0171,-13.8527 -16.6233,-27.7055 16.6233,-12.0056 21.2408,-32.323 7.3881,-32.323 -4.6176,0 -15.6997,6.4647 -24.0114,14.7763 -7.3882,8.3115 -20.3173,12.0056 -28.629,9.2351 -16.6233,-6.4646 -8.3116,-24.0114 11.0822,-24.0114 24.9349,0 12.9292,-49.8698 -36.0171,-148.6859 -37.8641,-73.8812 -52.6403,-96.0456 -62.799,-90.5045 -6.4646,3.6941 -24.0114,9.2352 -37.8641,12.9293 -23.0878,4.6175 -25.8584,9.2351 -25.8584,40.6346 0,31.3995 3.694,36.9406 47.0992,64.646 32.3231,21.2409 44.3287,35.0936 40.6348,45.2523 -2.7706,8.3117 4.6175,24.9348 20.3172,40.6347 13.8528,13.8527 21.2408,25.8583 16.6233,25.8583 -7.3881,0 -69.2637,-44.3286 -78.4987,-56.3343 -2.7706,-2.7706 -13.8528,-8.3117 -24.935,-12.0058 -19.3938,-6.4645 -21.2408,-3.694 -21.2408,25.8585 0,32.323 2.7706,34.17 69.2636,67.4165 46.1757,23.088 69.2636,39.7112 69.2636,50.7934 0,24.9349 -18.4702,29.5525 -39.7112,9.2351 -19.3937,-18.4703 -89.5809,-50.7933 -95.122,-45.2522 -1.847,1.847 0.9236,49.8699 5.5411,108.0512 5.5411,57.2579 7.3882,106.2042 4.6177,108.9749 -2.7706,2.7704 -11.0822,-0.9236 -18.4704,-8.3117 -17.5467,-17.5468 -32.323,-103.4337 -32.323,-185.6266 v -61.8754 l -52.6404,-35.0936 c -29.5525,-19.3938 -58.1814,-37.8641 -64.646,-41.5582 -12.9292,-9.2351 -81.2693,98.8162 -132.9861,209.6379 -36.0171,75.7283 -37.8642,84.9634 -45.2523,210.5614 -4.6175,72.0342 -9.2352,151.4565 -9.2352,176.3914 0,44.3287 -1.847,47.0993 -71.1106,114.5158 l -71.1107,70.1871 -5.5411,60.952 c -3.694,46.1758 -8.3116,59.1051 -18.4702,57.258 -7.3881,-1.847 -17.5468,-3.694 -21.2409,-4.6176 -4.6175,-0.9235 -12.9291,6.4647 -18.4702,16.6233 -12.9293,21.2408 -35.0936,40.6346 -47.0993,41.5582 -3.6941,0 -5.5411,-24.0115 -2.7706,-52.6404 7.3881,-71.1106 18.4703,-124.6746 25.8584,-120.9805 15.6998,6.4647 42.4817,-31.3994 37.8642,-52.6403 -5.5411,-29.5525 -13.8527,-29.5525 -33.2466,0 -11.0821,17.5468 -21.2408,22.1643 -34.1701,18.4703 -11.0821,-3.6941 -19.3938,-0.9235 -23.0878,8.3117 -2.7705,7.3881 -11.0822,11.0821 -18.4704,8.3116 -14.7761,-5.5411 -18.4702,-85.8869 -3.6939,-85.8869 5.541,0 9.235,-15.6998 9.235,-34.1701 0,-40.6347 -31.3994,-217.026 -50.7932,-285.3661 -18.4703,-64.6461 -18.4703,-164.3856 0.9235,-180.0854 12.0056,-9.2351 15.6997,-9.2351 23.0878,1.847 10.1588,16.6233 10.1588,31.3995 -0.9234,76.6518 -10.1588,45.2522 -1.8471,60.952 37.8641,73.8812 21.2408,7.3881 32.323,17.5467 37.8641,37.8641 4.6175,15.6997 22.1643,83.1163 39.7111,150.5329 32.3231,122.8275 56.3344,184.7029 67.4166,172.6973 8.3117,-7.3881 8.3117,-614.1375 0,-614.1375 -2.7705,0 -12.9293,22.1644 -22.1644,48.9463 -17.5468,54.4875 -28.629,71.1107 -46.1757,71.1107 -9.2352,0 -7.3882,-9.2351 5.5411,-38.7876 10.1586,-22.1644 18.4703,-45.2523 18.4703,-52.6404 0,-22.1643 120.9805,-222.5671 133.9096,-222.5671 24.0114,0 50.7933,-47.0993 50.7933,-87.7339 0,-93.275 21.2409,-157.921 71.1107,-219.7965 24.0114,-30.476 26.782,-68.3401 8.3116,-121.904 -20.3173,-57.2579 -42.4816,-162.5387 -42.4816,-200.4028 0,-29.5524 2.7705,-34.17 26.7819,-39.7111 14.7763,-2.7705 43.4052,-1.847 62.799,3.694 41.5582,12.0057 59.105,0 36.9406,-24.9348 -9.2352,-9.2352 -12.9292,-24.0115 -10.1587,-36.0171 3.6941,-12.0057 -10.1586,-63.7226 -32.323,-125.598 -21.2408,-58.1815 -37.8641,-109.8983 -37.8641,-116.363 0,-5.541 12.9292,-27.7054 27.7055,-48.9462 15.6997,-20.3174 27.7054,-43.4052 27.7054,-48.9463 0,-6.4647 8.3117,-30.476 18.4703,-53.5638 34.1701,-75.7283 58.1815,-403.5761 41.5582,-552.262 -6.4647,-61.87551 2.7705,-109.89825 29.5524,-151.45643 7.3881,-11.0822 12.0058,-50.79334 12.0058,-110.82185 0,-50.79335 8.3116,-154.22697 18.4702,-229.9552 20.3174,-157.92105 18.4703,-181.00892 -17.5468,-181.00892 -32.323,0 -47.0992,-15.69975 -47.0992,-48.9463 0,-24.01138 -1.8471,-25.85841 -14.7762,-14.77624 -35.0936,29.55248 -95.1221,119.13343 -108.0513,161.6151 l -12.9292,45.25225 -44.3288,1.84703 -43.4051,1.84703 4.6176,-31.39955 c 4.6175,-29.55242 2.7705,-32.32302 -19.3938,-36.94055 -13.8527,-2.7705 -50.7934,-13.8527 -83.1164,-24.01138 -32.323,-11.08219 -60.0285,-18.47031 -61.8755,-16.62328 -1.8471,2.77055 2.7706,35.09356 9.2351,72.95768 6.4647,37.86411 14.7763,93.27499 18.4704,122.82751 6.4645,56.33434 9.2351,60.0284 32.323,38.78758 7.3881,-7.38813 29.5525,-19.39379 48.0227,-26.78192 28.629,-12.00566 35.0936,-12.00566 44.3288,-0.92347 21.2408,24.93489 6.4646,54.48731 -36.9407,75.72824 -23.0878,11.08209 -48.9463,20.31725 -58.1813,20.31725 -13.8528,0.92357 -14.7763,8.3117 -10.1588,65.56961 7.3882,71.1106 12.9293,64.64604 -56.3343,68.3401 -29.5525,1.84703 -18.4703,42.48165 36.9406,142.2213 57.2579,101.58661 70.1871,144.06831 48.0227,165.30921 -7.3881,8.3115 -20.3173,12.0056 -27.7054,9.2351 -13.8528,-5.5411 -121.904,-219.79655 -137.6038,-272.43693 -6.4645,-24.01132 -12.9292,-29.55242 -34.17,-29.55242 -22.1644,0 -25.8584,-2.7706 -22.1644,-22.16439 12.0058,-59.10494 -33.2465,-16.62329 -148.6859,139.45073 -43.4052,59.105 -73.8812,84.03991 -84.0398,67.41661 -7.3881,-12.92921 11.0822,-45.25221 99.7396,-172.69729 l 78.4988,-112.66878 -64.6461,-75.72823 c -35.0936,-42.48175 -67.4166,-83.11637 -72.0341,-91.42806 -11.0822,-20.31726 -0.9236,-55.41088 14.7761,-55.41088 12.0058,0 96.0456,94.19856 114.516,129.29208 12.0056,23.08795 39.7111,24.93499 33.2464,2.7706 -1.847,-9.23517 -7.3881,-59.10494 -10.1586,-110.82186 -3.6941,-52.64027 -9.2352,-95.12202 -12.9292,-95.12202 -2.7705,0 -11.0822,8.3117 -17.5468,18.47033 -6.4645,10.15862 -17.5467,18.47032 -24.9349,18.47032 -19.3938,0 -49.8697,-73.88122 -44.3287,-104.3572 4.6176,-21.24085 0.9235,-24.0114 -30.476,-31.39952 -70.1872,-13.85272 -170.8503,-6.4646 -229.9552,17.54679 -50.7934,20.31733 -55.4109,24.01138 -56.3345,53.56389 -1.847,32.32302 -23.0878,55.41088 -50.7932,55.41088 -21.2409,0 -38.7877,-24.01142 -33.2466,-46.17571 2.7706,-10.15873 1.847,-20.31737 -1.847,-23.08792 -11.0822,-6.4646 -203.1733,46.17577 -266.8958,72.95769 -45.2522,19.3938 -72.0341,24.01143 -129.2922,24.01143 -91.42798,0 -147.76232,-23.08796 -260.43115,-105.28076 -43.4052,-31.3995 -95.12204,-70.18713 -116.36288,-84.96337 -71.11065,-50.79332 -144.06833,-122.82748 -140.37426,-139.45076 5.54108,-31.3995 33.24653,-21.24084 131.13911,52.64036 88.65743,66.49307 116.36288,83.11634 116.36288,70.18714 0,-2.77055 -23.08788,-25.85843 -50.79332,-52.64036 -53.56387,-49.86981 -60.95199,-67.41659 -35.09357,-76.65174 10.15867,-4.61757 27.70545,5.54109 52.64036,29.55248 65.56956,60.95198 65.56956,60.95198 96.96906,37.86412 l 28.62897,-21.24085 26.78193,20.31733 c 14.77624,10.15866 35.09362,18.4703 46.17571,17.54678 15.69978,-0.92352 19.39388,-7.38812 19.39388,-31.3995 0,-22.16436 4.6272,-33.25138 21.2505,-44.33355 26.1105,-3.94238 91.85888,-9.2826 74.79498,8.31646 -13.8526,11.08218 -12.0056,14.77624 26.782,41.55817 85.8869,58.18145 180.0854,91.42798 194.8616,66.49307 4.6176,-7.38812 -20.3173,-62.79901 -43.4052,-95.12203 -26.7819,-38.78762 32.323,-67.41659 84.0399,-40.63465 25.8584,12.9292 27.7054,12.9292 36.9406,-8.31164 12.9292,-27.705449 31.3995,-28.628959 80.3458,-5.54109 20.3173,9.23514 52.6403,24.01138 72.9577,32.32302 31.3995,13.85272 35.0935,18.47031 30.476,41.55817 -4.6176,22.16436 -1.847,27.70545 14.7763,32.32303 33.2464,9.23514 34.17,7.38812 18.4702,-27.70545 -12.0057,-24.01139 -12.9291,-36.01708 -6.4646,-48.02278 15.6997,-24.9349 48.9463,-24.01138 76.6517,0.92351 44.3288,40.63467 80.3459,60.952 137.6038,76.65174 31.3994,9.23516 60.0284,13.85273 62.799,11.08219 14.7763,-14.77624 -12.0057,-58.18145 -57.2579,-91.42798 -27.7055,-20.31733 -49.8699,-44.328719 -49.8699,-52.640359 0,-22.16435 17.5469,-38.78762 42.4818,-38.78762 25.8584,0 105.2806,70.187139 105.2806,93.275009 0,9.23514 3.6941,17.54678 8.3117,17.54678 4.6175,0 30.476,18.4703 58.1814,40.63466 43.4052,35.09356 90.5045,60.95199 90.5045,48.02277 0,-1.84702 -12.0057,-16.62326 -27.7054,-31.3995 -32.3231,-33.24654 -35.0936,-57.25793 -8.3117,-73.8812 16.6233,-10.15866 24.9349,-7.38811 77.5753,30.47599 32.323,23.08788 61.8755,46.17575 64.646,50.79333 7.3881,12.00569 80.3458,47.09926 85.8868,41.55817 6.4647,-6.4646 -49.8697,-73.8812 -99.7395,-118.20991 -53.5638,-48.02278 -61.8755,-83.116339 -24.0114,-99.739619 18.4703,-9.23515 26.7819,-7.38812 48.0227,9.23516 13.8528,10.15866 28.6291,19.39381 32.3231,19.39381 4.6176,0 24.0114,11.08217 43.4051,24.934899 46.1759,33.24654 147.7624,81.26932 155.1506,73.8812 3.694,-2.77055 -7.3882,-26.78193 -24.0113,-52.64036 -28.6291,-44.328709 -29.5526,-49.869809 -19.3939,-82.192829 13.8528,-47.0992533 43.4052,-53.563856 137.6037,-28.62896 96.9691,25.85843 179.1619,33.24654 213.3319,18.47031 22.1644,-9.23516 39.7112,-8.31164 90.5045,2.77053 65.5696,13.85273 398.035,16.62328 446.0577,2.77055 l 23.0879,-6.4646 -21.2408,18.47029 c -12.0057,10.15867 -36.9406,21.24085 -55.4109,24.0114 -74.8048,12.00569 -78.4988,13.85272 -66.4931,27.705439 6.4646,7.38812 8.3116,13.85273 5.5411,13.85273 -15.6998,0 22.1643,47.09926 90.5044,111.7453 79.4223,74.80471 204.0969,174.54437 198.5558,157.92105 -1.8471,-5.54108 -34.1701,-43.4052 -70.1872,-83.11634 -81.2693,-88.65743 -95.122,-116.36288 -74.8046,-137.60372 13.8526,-12.92921 17.5467,-12.92921 48.0227,5.54109 18.4703,12.00569 52.6404,43.4052 75.7282,71.11065 46.1757,53.56386 56.3345,58.18143 41.5582,19.39381 -8.3117,-20.31733 -6.4647,-25.85842 8.3116,-34.17005 31.3996,-16.62327 47.0993,-10.15867 99.7397,44.32871 63.7224,63.72253 161.6151,150.53296 165.3091,145.91533 1.8471,-1.84704 -12.9292,-23.08786 -33.2466,-48.02274 -20.3172,-24.01139 -48.0227,-69.26363 -60.0284,-100.66313 -19.3938,-47.09926 -20.3173,-58.18144 -11.0822,-73.8812 24.0115,-36.94059 47.0993,-27.70545 83.1164,31.39951 37.8641,61.8755 132.0626,152.37996 228.1082,217.94948 89.5809,61.87554 97.8926,47.09928 12.0056,-23.08786 -39.7111,-33.24648 -87.7339,-74.80467 -107.1277,-94.19849 -32.323,-30.47599 -34.17,-35.09356 -24.9348,-57.25792 6.4645,-12.92921 14.7761,-24.0114 19.3937,-24.0114 13.8527,0 46.1758,19.39381 99.7396,60.02848 51.7169,38.78762 148.686,96.96911 161.6152,96.96911 4.6175,0 -15.6998,-23.08792 -44.3288,-50.79337 -48.0227,-47.09926 -51.7168,-52.64034 -41.5582,-73.88119 12.9293,-29.55248 39.7112,-37.86411 66.4931,-19.39382 12.0058,7.38812 45.2522,22.16436 73.8812,32.32303 l 51.7169,18.47029 24.9349,-23.08787 c 21.2408,-19.39381 68.3401,-29.55247 107.1277,-23.08787 3.6941,0.92352 36.9406,2.77054 72.0342,3.69406 44.3287,1.84703 67.4166,7.38812 72.9577,15.69975 17.5467,27.70545 9.2352,36.01709 -45.2523,42.48169 -67.4166,7.38812 -72.9577,11.08218 -68.3401,45.25223 3.6941,26.78197 6.4646,27.70543 40.6347,24.93494 60.0285,-6.46467 82.1929,3.69406 82.1929,34.17005 0,14.77616 -4.6177,28.62895 -11.0822,30.47598 -7.3882,2.7705 -5.5411,17.54676 6.4645,52.64038 15.6997,41.55808 15.6997,48.94621 4.6177,56.33434 -23.088,14.77626 -42.4818,10.15873 -68.3401,-13.85269 -28.6291,-26.78192 -42.4818,-29.55252 -42.4818,-9.23516 0,8.31159 -11.0822,18.47032 -24.0114,23.08785 -13.8527,5.5411 -32.323,19.39379 -41.5581,31.39956 -14.7763,18.47022 -24.935,22.16428 -76.6518,22.16428 -50.7933,0 -60.952,-2.77049 -65.5695,-17.54675 -7.3881,-22.16429 -14.7763,-22.16429 -61.8755,1.84703 -70.1872,36.01708 -138.5273,54.48741 -200.4028,54.48741 -60.0284,0.92346 -60.952,0.92346 -41.5582,16.62329 24.0114,20.31726 36.0171,53.56384 22.1644,61.87544 -4.6175,2.7706 -9.2352,15.69983 -9.2352,28.62895 0,12.92923 -6.4645,33.24659 -14.7762,45.25225 -10.1587,15.69972 -12.9292,31.39955 -8.3116,52.64038 8.3116,38.78758 80.3457,186.55 110.8218,228.1082 13.8527,19.3937 21.2408,37.8641 17.5468,46.1758 -3.6941,8.3116 -8.3117,48.9462 -11.0822,90.5044 -4.6177,80.3458 20.3173,252.1196 36.0171,252.1196 4.6175,0 13.8527,10.1586 19.3938,23.0878 5.5411,12.9292 15.6997,23.0879 21.2408,23.0879 28.6289,0 34.17,25.8584 25.8584,126.5215 -7.3881,98.8161 -7.3881,99.7397 -30.4759,96.9691 -29.5526,-3.6941 -150.5329,-12.0057 -200.4028,-13.8527 -29.5524,-0.9236 -45.2523,3.6941 -59.105,17.5468 -17.5467,18.4703 -17.5467,20.3173 -3.694,35.0936 8.3117,8.3116 23.0878,14.7762 33.2466,14.7762 10.1586,0 27.7053,4.6176 38.7875,11.0821 23.0879,12.0058 136.6802,113.5924 146.839,131.1391 3.6939,6.4647 -3.6941,32.3232 -15.6999,57.2581 -12.9292,24.9348 -23.0878,51.7168 -23.0878,59.1049 -0.9235,18.4703 -22.1644,46.1757 -36.0171,46.1757 -5.5411,0 -21.2408,-6.4646 -33.2465,-14.7763 -30.4761,-20.3172 -29.5525,-6.4645 4.6175,60.952 15.6998,30.4761 27.7055,65.5696 27.7055,77.5753 0,12.9292 4.6176,25.8584 9.2351,28.6289 5.5411,2.7706 9.2352,19.3939 9.2352,36.0171 0,25.8585 35.0936,137.6038 51.7169,164.3857 2.7705,4.6176 13.8527,-2.7705 24.0113,-16.6233 14.7763,-18.4702 25.8585,-23.0878 45.2522,-20.3172 22.1644,3.694 26.782,0.9234 26.782,-14.7763 0,-33.2466 -11.0822,-60.952 -24.0114,-60.952 -21.2409,0 -123.751,-168.0797 -123.751,-203.1732 0,-16.6233 4.6176,-19.3939 30.4759,-16.6233 25.8585,2.7705 33.2466,9.2351 56.3345,56.3344 26.7819,53.5638 46.1757,70.1871 38.7877,32.323 -13.8528,-69.2636 -13.8528,-97.8926 0,-109.8983 22.1643,-17.5468 42.4816,0 59.1049,50.7933 8.3116,24.0114 16.6232,42.4817 18.4702,41.5582 2.7706,-0.9235 13.8528,2.7706 25.8585,9.2351 l 20.3174,11.0822 v -132.9861 c 0,-72.9577 2.7704,-170.8503 6.4645,-217.9496 l 5.5411,-84.9634 26.7819,5.5411 c 13.8528,3.6941 25.8585,4.6177 25.8585,2.7706 6.4646,-54.4874 30.476,-152.38 40.6346,-162.5386 21.2408,-21.2408 46.1758,-6.4646 38.7877,24.0114 -28.629,116.3629 -40.6347,205.0203 -28.629,205.0203 7.3882,0 51.7168,-28.6289 81.2693,-52.6404 42.4817,-34.17 72.9577,-23.0878 36.9406,13.8527 -55.4109,55.4109 -65.5696,74.8048 -72.0342,137.6038 -2.7705,34.1701 -12.0056,91.428 -20.3173,126.5215 -11.0822,50.7933 -12.0057,73.8812 -4.6175,110.8218 19.3937,89.581 41.5581,288.1367 42.4816,370.3295 0,71.1107 -3.6941,90.5045 -24.0113,135.7567 -12.9292,28.629 -35.0936,59.105 -48.9463,68.3401 -24.0115,15.6998 -24.9349,15.6998 -51.7169,-12.9292 -22.1643,-24.0114 -31.3995,-27.7055 -45.2522,-20.3173 -27.7055,14.7762 -31.3995,12.0057 -49.8699,-38.7876 -16.6232,-47.0993 -58.1813,-99.7397 -79.4223,-99.7397 -6.4645,0 -10.1586,12.9292 -8.3116,35.0936 2.7706,37.8642 -7.3881,108.9748 -21.2408,133.9096 -13.8527,27.7055 -52.6404,19.3938 -92.3515,-21.2408 -20.3173,-20.3173 -41.5582,-36.9405 -46.1757,-36.9405 -20.3174,0 -82.1928,52.6402 -85.8869,73.8812 -12.0057,55.4108 -30.476,96.969 -44.3288,99.7395 -14.7762,2.7706 -134.8331,-51.7168 -158.8445,-72.0341 -18.4703,-15.6998 -43.4052,0 -37.8641,22.1643 2.7705,10.1587 10.1587,60.0285 16.6232,110.8218 10.1587,84.0399 10.1587,91.428 -5.5411,102.5101 -25.8583,19.3938 -37.8641,8.3117 -55.4109,-46.1757 -8.3115,-28.6289 -25.8583,-61.8755 -37.8641,-76.6517 -21.2408,-24.0114 -22.1643,-24.935 -35.0935,-6.4646 -11.0822,14.7762 -15.6998,15.6997 -27.7055,5.5411 -11.0822,-8.3116 -19.3938,-9.2352 -33.2465,-1.8471 -27.7054,14.7763 -47.0992,2.7706 -47.0992,-28.6289 0,-35.0936 24.9348,-88.6575 47.0992,-99.7397 16.6232,-9.235 16.6232,-11.0821 0,-48.9462 -9.2351,-22.1644 -20.3173,-52.6404 -24.0114,-69.2637 -2.7706,-15.6997 -10.1586,-32.323 -14.7762,-35.0935 -12.0057,-7.3881 -62.799,13.8527 -84.0399,35.0935 -9.2351,9.2352 -22.1644,16.6233 -29.5525,16.6233 -24.0113,0 -27.7054,36.9406 -6.4646,56.3345 14.7763,13.8527 26.782,16.6232 56.3345,12.0056 41.5581,-6.4646 42.4816,-6.4646 22.1643,40.6347 -7.3882,18.4703 -15.6998,70.1871 -17.5468,114.5159 l -2.7705,79.4223 33.2465,5.541 c 43.4052,7.3881 55.4109,7.3881 89.5809,0.9235 l 27.7055,-6.4645 17.5468,75.7281 16.6233,75.7282 -24.9349,25.8585 c -20.3174,21.2408 -24.0114,31.3995 -18.4703,55.4109 l 6.4645,29.5525 36.0171,-35.0936 c 39.7111,-37.8641 87.734,-59.105 139.4508,-59.105 27.7055,0 43.4052,7.3882 72.9576,34.1701 20.3174,18.4703 45.2523,48.9463 54.4874,68.3401 10.1587,18.4703 39.7112,55.4109 67.4167,81.2693 70.1871,67.4167 84.0398,108.9747 77.5753,248.4255 -10.1588,234.5729 -32.3232,309.3775 -120.9805,398.9585 -55.4109,56.3344 -109.8983,101.5866 -122.8275,101.5866 -21.2409,0 -72.0342,-46.1758 -82.1928,-74.8047 -7.3882,-23.0879 -14.7763,-30.476 -27.7055,-28.629 -52.6404,9.2352 -53.5639,8.3117 -92.3516,-70.1871 -45.2521,-89.5809 -77.5751,-201.3263 -77.5751,-266.8958 0,-51.7169 -6.4647,-76.6518 -20.3174,-76.6518 -4.6176,0 -7.3881,44.3288 -6.4646,110.8219 1.847,92.3514 0,113.5922 -12.9292,127.445 -21.2409,23.0879 -20.3173,25.8584 11.0821,37.8642 13.8528,6.4645 39.7112,24.9348 56.3345,42.4816 24.9349,25.8585 27.7055,33.2466 19.3938,49.8698 -6.4646,12.0057 -20.3173,19.3939 -35.0936,19.3939 -20.3173,0 -22.1643,2.7705 -16.6232,21.2408 14.7762,45.2522 10.1586,65.5695 -15.6998,74.8047 -22.1644,7.3881 -32.323,2.7706 -88.6574,-37.8642 l -64.6461,-47.0992 -15.6997,36.017 c -9.2352,20.3174 -17.5469,60.9521 -17.5469,92.3516 -1.8469,48.0227 -4.6175,59.1049 -22.1642,71.1107 -25.8585,16.6232 -25.8585,36.0171 0.9234,57.2579 20.3174,16.6233 20.3174,17.5467 2.7706,46.1757 -13.8528,24.9349 -14.7762,31.3996 -4.6176,37.8641 7.3881,4.6176 18.4703,8.3116 24.9349,8.3116 19.3939,0 68.3401,27.7055 109.8983,62.7991 30.4759,24.9349 36.9406,36.0171 28.6289,45.2522 -15.6997,19.3939 -36.0171,13.8528 -95.122,-24.9349 -50.7933,-34.1701 -69.2636,-40.6346 -56.3343,-20.3173 2.7704,4.6175 34.17,27.7054 69.2635,51.7168 84.9634,58.1815 97.8926,72.0342 84.0398,96.9691 -12.0056,23.0878 -15.6997,22.1644 -105.2806,-44.3287 -58.1815,-43.4052 -67.4166,-47.0993 -115.4394,-47.0993 -28.6289,0 -60.0285,-2.7706 -71.1106,-5.5411 -18.4703,-4.6176 -49.8699,-55.4108 -49.8699,-81.2693 0,-7.3881 -32.323,-29.5525 -71.1106,-49.8698 -96.969,-49.8699 -95.122,-61.8755 9.2352,-60.0285 72.9576,0.9236 81.2693,-0.9235 74.8047,-13.8527 -17.5468,-41.5582 -35.0936,-150.533 -25.8584,-165.3091 16.6232,-25.8585 29.5524,-24.0115 36.017,5.5411 12.0058,54.4873 23.0879,28.6289 23.0879,-51.717 0,-102.5101 5.5411,-124.6744 30.476,-120.9803 16.6232,2.7705 17.5468,10.1586 19.3938,113.5922 0.9235,99.7397 5.5411,123.7511 24.9349,124.6746 3.6941,0 8.3116,-7.3882 12.0057,-15.6998 2.7706,-9.2351 12.9292,-28.6289 23.0879,-44.3287 9.2351,-14.7762 14.7762,-30.476 12.9292,-35.0936 -1.8471,-3.694 2.7706,-29.5525 10.1587,-56.3344 l 14.7762,-49.8698 -31.3995,-46.1757 c -16.6233,-25.8585 -46.1757,-60.0285 -64.646,-75.7282 -36.0171,-32.323 -44.3287,-69.2637 -16.6233,-77.5753 9.2351,-2.7706 37.8641,0 64.646,7.3881 26.7819,6.4646 48.0228,9.2352 48.0228,5.5411 0,-3.694 -6.4646,-24.9349 -13.8527,-46.1758 -7.3882,-21.2408 -13.8527,-48.9462 -13.8527,-60.0284 0,-12.0057 -8.3116,-38.7877 -17.5468,-60.952 -11.0822,-24.0114 -15.6998,-49.8698 -12.9292,-64.6461 4.6175,-24.0113 1.847,-25.8584 -35.0936,-36.0171 -86.8104,-22.1643 -100.6632,-28.6289 -100.6632,-47.0992 0,-12.0057 16.6233,-28.6289 47.0993,-47.0992 40.6347,-25.8585 45.2523,-32.3231 40.6347,-52.6404 -3.694,-12.9292 -11.0822,-30.476 -18.4703,-37.8641 -6.4647,-7.3882 -18.4703,-27.7054 -26.7819,-43.4052 -12.0058,-24.0114 -21.2408,-30.476 -43.4052,-30.476 -14.7763,0 -38.7877,5.5411 -52.6404,12.9292 -13.8527,6.4646 -50.7934,14.7763 -83.1164,17.5468 -94.1984,10.1587 -103.4336,13.8528 -103.4336,45.2522 0,16.6233 8.3116,35.0936 23.0879,48.0227 25.8584,24.0115 29.5525,47.0993 11.0822,69.2637 -6.4647,8.3116 -21.2409,46.1757 -32.3231,84.0398 -39.7111,132.9862 -43.4052,531.9447 -10.1587,905.0447 12.9292,140.3742 16.6233,524.5565 6.4647,547.6444 -13.8528,28.6289 -40.6347,18.4703 -51.7168,-18.4704 z m 712.9534,-1486.859 c 18.4703,-61.8755 23.088,-103.4337 12.9292,-137.6037 l -10.1586,-36.0171 -30.476,64.6461 c -36.0171,72.9576 -36.9406,84.0398 -15.6998,108.0512 18.4703,21.2408 36.9406,21.2408 43.4052,0.9235 z m 7.3881,-336.1594 c 9.2352,-31.3995 8.3117,-38.7876 -2.7705,-46.1758 -34.17,-21.2408 -43.4052,-0.9235 -30.4759,64.6461 7.3881,36.0171 18.4702,29.5525 33.2464,-18.4703 z m -749.8941,-346.3181 c 0,-22.1644 -8.3115,-35.0936 -36.9406,-58.1815 -34.1701,-27.7055 -36.9406,-27.7055 -36.9406,-10.1586 0,11.0822 -3.694,26.7819 -8.3115,36.0171 -10.1588,19.3938 -6.4647,26.7819 36.017,58.1814 36.0171,27.7055 46.1757,22.1644 46.1757,-25.8584 z m 577.1969,-68.3401 c 2.7706,-4.6176 0.9235,-9.2352 -3.6941,-9.2352 -5.5411,0 -10.1586,4.6176 -10.1586,9.2352 0,5.5411 1.847,9.2352 3.694,9.2352 2.7705,0 7.3882,-3.6941 10.1587,-9.2352 z m 377.7175,-26.7819 c -4.6175,-22.1644 -1.847,-29.5525 15.6999,-38.7877 12.0056,-6.4646 27.7054,-11.0822 34.17,-10.1586 5.5411,1.847 11.0821,-3.6941 11.0821,-12.0058 0,-12.0057 -10.1586,-13.8527 -60.952,-10.1586 -33.2464,1.847 -62.799,5.5411 -65.5695,9.2351 -2.7706,2.7705 1.8471,19.3938 10.1587,36.9406 8.3116,17.5469 14.7762,36.0171 14.7762,41.5582 0,5.5411 10.1587,10.1587 23.0879,10.1587 20.3174,0 22.1644,-2.7706 17.5467,-26.7819 z m 716.6477,-41.5582 v -37.8641 l -23.0879,35.0935 c -20.3174,28.629 -22.1644,36.9407 -12.9292,54.4874 10.1586,19.3938 11.0822,19.3938 23.0878,2.7705 7.3882,-9.235 12.9293,-34.17 12.9293,-54.4873 z m -481.1514,38.7876 c 3.6941,-11.0822 5.5411,-27.7054 3.6941,-36.0171 -5.5411,-20.3174 -30.476,-31.3994 -30.476,-13.8527 0,6.4646 -2.7705,25.8584 -5.5411,41.5582 -4.6175,23.0878 -2.7705,28.6289 9.2352,28.6289 8.3117,0 18.4703,-9.2351 23.0878,-20.3173 z m 165.3093,-13.8527 c 1.847,-11.0822 -8.3117,-41.5582 -22.1644,-69.2637 -13.8527,-26.7819 -38.7877,-82.1928 -55.4109,-122.8274 -15.6998,-39.7111 -33.2465,-73.8812 -36.9406,-75.7282 -4.6175,-0.9236 -20.3174,8.3116 -35.0935,20.3172 l -27.7055,22.1644 45.2522,76.6517 c 99.7397,172.6973 124.6746,200.4028 132.0627,148.686 z m -764.6705,-43.4052 c -9.235,-43.4052 -15.6997,-54.4874 -38.7875,-66.4931 -14.7763,-7.3881 -29.5526,-12.0057 -32.3231,-10.1586 -6.4645,7.388 23.0879,72.0341 48.9464,106.2042 12.9292,16.6232 25.8583,28.629 28.6289,25.8584 2.7705,-1.8471 0,-27.7054 -6.4647,-55.4109 z m 278.9017,-69.2637 c 27.7053,-15.6997 31.3994,-24.0113 15.6997,-33.2465 -4.6177,-3.694 -16.6233,0 -25.8585,8.3116 -19.3938,17.5469 -47.0993,19.3939 -47.0993,3.6941 0,-16.6233 -80.3457,-105.2807 -87.7338,-97.8925 -7.3882,7.3881 32.323,91.4279 71.1107,150.5329 l 30.4759,45.2522 8.3116,-31.3995 c 5.5411,-18.4703 19.3938,-36.9406 35.0937,-45.2523 z m 566.1146,17.5469 c 8.3116,-13.8528 -12.9293,-36.9407 -33.2466,-36.9407 -20.3173,0 -21.2408,3.6941 -6.4646,27.7055 12.9292,20.3174 30.476,24.0113 39.7112,9.2352 z m -323.2302,-37.8641 c 18.4702,-18.4704 3.6939,-127.4451 -31.3996,-242.8845 -64.646,-211.4849 -40.6346,-305.6834 66.4931,-265.0488 20.3174,8.3116 24.0114,6.4646 28.629,-13.8527 7.3881,-29.5525 -19.3938,-81.2693 -67.4166,-127.445 l -36.9406,-36.0171 -10.1587,24.9349 c -4.6176,13.8527 -9.2351,27.7054 -9.2351,31.3994 0,2.7706 -13.8527,19.3938 -29.5525,36.0171 -27.7054,28.629 -30.476,37.8641 -36.9406,111.7453 -2.7706,44.3287 -2.7706,96.9691 1.847,117.2864 4.6176,21.2409 4.6176,55.4109 0,78.4988 -12.0057,58.1815 -22.1644,260.4313 -15.6997,288.1366 5.541,21.2409 7.388,22.1644 67.4165,15.6998 33.2466,-3.694 66.4931,-12.0057 72.9578,-18.4702 z m -1108.218,10.1586 c 2.7706,-10.1586 123.7511,-54.4874 173.6208,-63.7226 35.0935,-6.4646 35.0935,-5.541 21.2409,-111.7452 -8.3116,-72.0342 -3.6941,-169.9268 11.0822,-193.0147 8.3115,-14.7762 33.2464,-12.0056 51.7168,4.6176 14.7762,13.8528 17.5467,12.0057 35.0936,-22.1643 12.0056,-23.088 26.7819,-38.7877 41.5582,-42.4818 25.8583,-6.4645 37.8641,-36.9405 48.0227,-119.1334 5.5411,-53.5639 5.5411,-54.4873 -15.6997,-50.7933 -17.5469,1.8471 -23.088,10.1587 -26.7819,35.0936 -5.5411,36.017 -26.7821,46.1757 -48.9464,23.0878 -22.1643,-21.2408 -40.6347,-16.6232 -66.493,17.5469 -16.6233,22.1643 -23.0879,40.6346 -21.2409,63.7225 0.9235,22.1643 -3.694,39.7111 -15.6998,53.5638 -13.8527,14.7763 -18.4703,33.2466 -18.4703,76.6518 0,49.8698 -1.847,56.3343 -19.3938,59.1049 -12.9292,1.8471 -24.9349,-5.5411 -35.0935,-20.3173 -22.1644,-35.0935 -54.4874,-32.323 -65.5696,6.4646 -8.3116,24.9349 -12.9292,29.5525 -34.1701,26.782 -35.0935,-4.6177 -32.323,11.0822 6.4647,39.7111 l 31.3995,24.9349 -22.1644,33.2465 c -19.3938,28.6289 -22.1643,39.7111 -16.6232,82.1929 3.694,38.7876 2.7705,49.8698 -9.2352,54.4873 -15.6997,5.5411 -28.6289,31.3995 -16.6233,31.3995 4.6175,0 10.1586,-4.6175 12.0057,-9.2351 z m 1643.8566,-135.7567 c -7.3881,-12.9292 -9.2352,-7.3881 -10.1586,26.782 0,61.8754 12.9291,88.6573 16.6232,33.2464 1.847,-24.0113 -1.8471,-51.7168 -6.4646,-60.0284 z m -1071.2773,40.6347 c 0,-12.0057 -4.6176,-25.8585 -10.1587,-31.3996 -6.4646,-6.4646 -10.1587,-56.3343 -9.2351,-141.2977 0.9234,-140.3743 -3.6941,-158.8446 -50.7934,-209.638 -14.7762,-15.6997 -21.2408,-31.3994 -18.4703,-41.5581 17.5469,-53.5639 17.5469,-53.5639 -1.847,-53.5639 -24.0114,0 -30.476,48.9463 -33.2465,262.2783 l -1.8471,165.3092 55.4109,36.0171 c 63.7226,40.6346 70.1872,42.4816 70.1872,13.8527 z m 632.6077,-126.5216 c 16.6232,-36.9406 16.6232,-37.8641 -2.7706,-58.1814 -22.1643,-24.0114 -48.0227,-89.581 -48.0227,-123.7511 0,-12.0056 -6.4647,-29.5524 -14.7763,-36.9405 -12.0056,-12.9293 -15.6997,-12.9293 -23.0878,-1.8471 -12.0057,18.4704 -11.0822,27.7055 14.7762,128.3687 38.7876,154.2269 43.4053,159.768 73.8812,92.3514 z m -848.7103,-12.9292 c 2.7707,-12.9292 3.6941,-30.476 1.8471,-39.7111 -2.7705,-13.8528 -6.4646,-11.0822 -18.4702,11.0821 -13.8528,27.7055 -12.9293,50.7933 2.7705,50.7933 4.6175,0 10.1586,-10.1586 13.8526,-22.1643 z m 1274.4507,-20.3173 c -1.8471,-19.3938 -4.6176,-42.4818 -8.3116,-49.8699 -3.6941,-12.0056 -6.4647,-11.0821 -13.8528,2.7706 -5.5411,8.3116 -17.5468,15.6997 -26.7819,15.6997 -29.5525,0 -24.0114,42.4818 7.3881,58.1815 36.0171,19.3938 43.4052,13.8527 41.5582,-26.7819 z M 2579.834,2135.632 c 0,-16.6232 -24.9349,-48.9463 -32.323,-42.4817 -6.4647,7.3882 13.8527,54.4875 24.9349,54.4875 3.694,0 7.3881,-5.5411 7.3881,-12.0058 z m -147.7624,-52.6403 c 0,-18.4703 -4.6176,-27.7055 -13.8527,-27.7055 -14.7763,0 -17.5469,15.6998 -8.3117,40.6346 9.2352,24.0115 22.1644,16.6233 22.1644,-12.9291 z m 861.6394,5.541 c -13.8527,-12.9291 -27.7055,-18.4702 -28.629,-13.8527 -5.5411,13.8527 17.5468,36.0171 36.9406,36.0171 14.7763,0 13.8528,-2.7705 -8.3116,-22.1644 z m 158.8446,3.6941 c 2.7705,-4.6176 15.6997,-9.2351 28.629,-9.2351 h 23.0878 l -6.4646,-76.6518 -5.5411,-75.7282 36.0171,-46.1757 c 19.3938,-25.8585 47.0992,-60.952 60.0284,-78.4988 l 24.9349,-32.3231 -26.7819,-39.711 c -28.629,-43.4052 -64.646,-140.3743 -64.646,-176.3914 0,-14.7762 13.8528,-37.8641 37.8641,-61.8755 l 38.7877,-38.7876 -41.5582,-72.9577 c -36.0171,-62.799 -72.0342,-156.074 -169.0032,-446.05771 -83.1164,-247.50208 -100.6632,-292.75423 -121.9041,-312.14812 -12.0056,-11.08209 -27.7054,-20.31726 -34.17,-20.31726 -7.3882,0 -30.476,-8.3117 -52.6403,-17.54686 -36.9407,-16.62319 -41.5582,-23.08785 -65.5696,-89.58092 -24.0114,-63.72247 -24.9349,-72.95764 -12.0057,-86.81043 15.6997,-16.62319 17.5468,-27.70541 6.4646,-27.70541 -4.6175,0 -50.7934,-28.62896 -104.3572,-62.79901 -126.5216,-83.11635 -151.4565,-96.04555 -178.2384,-88.65743 -29.5524,7.38812 -36.0171,26.78193 -19.3938,59.10496 12.0057,22.16435 12.0057,29.55247 0,51.71683 -10.1586,22.16436 -11.0822,44.32874 -3.694,123.75104 12.9292,131.1391 1.847,372.17649 -20.3174,457.13991 -22.1643,84.03981 -22.1643,101.58661 3.6941,117.28631 38.7876,26.782 54.4874,134.8333 32.323,239.1904 -9.2352,45.2522 -7.3882,80.3458 9.2351,227.1846 30.476,269.6664 30.476,267.8194 12.9293,297.3719 -18.4704,33.2466 -4.6176,56.3344 30.476,48.9463 16.6232,-2.7706 23.0878,0 23.0878,11.0822 0,15.6997 19.3938,18.4702 74.8048,9.2351 l 33.2465,-5.5411 7.3881,-89.581 c 3.6941,-48.9462 7.3881,-103.4336 8.3116,-120.9804 l 0.9236,-32.323 -48.0228,-2.7706 c -26.782,-1.847 -48.9463,-6.4645 -48.9463,-10.1586 0,-14.7763 101.5866,-88.6575 130.2155,-94.1986 7.3882,-1.847 23.088,0.9236 35.0937,4.6177 24.0114,8.3116 24.0114,-11.0822 4.6175,229.9552 -4.6175,50.7933 -2.7705,71.1106 4.6176,71.1106 5.5411,0 15.6997,-10.1587 21.2408,-23.0879 8.3116,-18.4703 7.3882,-25.8584 -4.6175,-39.7111 -22.1644,-24.0115 -19.3939,-35.0936 14.7762,-60.952 58.1814,-44.3287 72.0341,-33.2466 97.8926,82.1928 20.3174,90.5045 15.6997,108.0512 -21.2408,88.6574 -17.5468,-10.1586 -26.7819,-10.1586 -48.0229,0.9236 -41.5581,19.3938 -32.323,36.0171 35.0936,63.7225 65.5697,26.7819 182.856,102.5101 219.7966,142.2213 23.0879,24.9349 32.323,27.7055 41.5582,13.8527 z m -845.0162,-247.502 c 0,-32.323 6.4646,-98.8161 14.7762,-147.7624 12.9293,-76.6517 13.8527,-94.1985 2.7706,-139.4507 -19.3939,-78.4988 -15.6998,-195.7852 9.2351,-287.2132 34.17,-124.6745 47.0993,-217.9495 40.6347,-295.52481 -3.6941,-47.0992 -0.9236,-83.11624 6.4646,-106.2042 6.4646,-20.31725 12.9292,-72.03417 14.7762,-115.43928 1.8471,-43.40521 11.0822,-165.30926 20.3174,-272.43694 14.7763,-165.30918 15.6997,-198.55572 4.6175,-225.33765 -6.4645,-16.62327 -12.0056,-40.63465 -12.0056,-51.71684 0,-21.24084 -15.6998,-32.32302 -47.0993,-32.32302 -16.6233,0 -17.5468,0.92352 -2.7705,23.08787 9.235,14.77624 12.9291,32.32303 10.1586,48.02278 -20.3173,98.81609 -24.9349,131.13912 -34.17,233.64933 -5.5411,63.72247 -13.8527,186.54998 -18.4704,272.43684 -4.6175,86.81043 -13.8527,188.39701 -21.2408,226.26111 -7.3881,38.78771 -13.8527,122.82751 -13.8527,189.32061 -0.9235,147.7624 -13.8528,257.6607 -44.3288,381.4117 -20.3172,80.3458 -23.0878,101.5866 -14.7761,133.9097 18.4702,71.1106 19.3938,84.9634 21.2408,188.397 l 0.9235,103.4337 31.3995,-33.2466 c 28.629,-30.476 31.3995,-37.8641 31.3995,-93.275 z m 1126.6882,-177.3149 c 33.2466,-21.2408 53.5638,-27.7054 90.5045,-27.7054 h 48.0227 l 10.1588,-47.0993 c 14.7761,-60.9519 13.8527,-80.3457 -3.6941,-168.0797 -11.0822,-53.5639 -13.8528,-102.5102 -11.0822,-176.3914 4.6175,-101.5866 4.6175,-102.5101 -24.9349,-157.921 -26.7819,-49.8698 -46.1758,-96.96911 -92.3515,-228.10817 -8.3116,-24.93489 -20.3174,-44.32868 -26.7819,-44.32868 -15.6998,0 -97.8926,-96.04559 -120.0569,-140.37427 -10.1588,-19.39389 -22.1644,-35.09362 -27.7055,-35.09362 -5.5411,0 -26.7819,-12.92923 -46.1757,-27.70538 -20.3174,-15.69983 -43.4053,-27.70549 -51.717,-27.70549 -8.3115,0 -40.6346,-10.15863 -72.0341,-22.16439 -31.3995,-12.92923 -59.105,-19.39379 -60.952,-16.6233 -10.1586,16.6233 18.4703,125.59812 76.6518,292.75431 132.0626,384.18219 208.7144,563.34409 247.502,578.12039 17.5467,6.4645 21.2408,14.7761 21.2408,44.3287 0,33.2464 -2.7705,36.9405 -43.4052,57.2579 -42.4817,21.2408 -44.3287,24.0114 -43.4051,59.1049 0,20.3174 10.1586,57.2579 22.1643,81.2693 24.9348,51.7168 35.0936,52.6404 108.0512,6.4646 z M 2727.5964,1379.2733 c 12.0056,-28.6289 12.9291,-41.5581 4.6175,-50.7933 -14.7762,-18.4703 -24.9349,-3.6941 -31.3995,46.1757 -7.3881,54.4874 6.4646,57.2579 26.782,4.6176 z M 2108.8413,714.34253 c 5.5411,-19.39379 -2.7705,-96.96906 -21.2408,-205.94377 -15.6998,-93.2751 -12.9293,-132.06269 11.0822,-139.4508 19.3938,-5.5411 19.3938,-6.46461 2.7706,-18.4703 -12.9293,-9.23516 -36.9407,-11.08218 -96.0456,-7.38812 -43.4052,3.69406 -80.3458,6.4646 -81.2694,7.38812 -0.9234,0.92351 0,10.15867 2.7706,21.24084 4.6176,16.62324 10.1587,19.39384 36.9406,14.77624 17.5468,-2.77055 31.3996,-1.84703 31.3996,2.77057 0,24.93489 28.6289,298.2953 33.2464,320.45969 4.6177,22.16429 9.2352,24.93489 40.6346,24.93489 27.7055,0 36.0171,-3.69407 39.7112,-20.31736 z m 1883.9706,-133.90961 37.864,-14.77626 -58.1814,-21.24082 c -51.7168,-18.47033 -60.0285,-19.39389 -73.8812,-8.3117 -7.3881,7.38813 -19.3938,13.8527 -24.9349,13.8527 -14.7763,0 -13.8528,43.40521 0.9235,49.86988 16.6233,7.38813 75.7282,-1.84704 118.21,-19.3938 z m -260.4313,-52.64037 c 9.2351,-10.15873 5.5411,-15.69973 -18.4704,-27.70549 -38.7875,-19.39379 -39.711,-19.39379 -20.3172,12.92923 18.4703,31.39955 24.0113,33.24658 38.7876,14.77626 z m 414.6582,-23.08786 c 16.6233,-10.15873 -1.847,-24.01142 -41.5582,-33.24658 -34.17,-6.46457 -37.8641,0 -14.7762,24.93488 15.6997,17.54676 36.9406,21.24083 56.3344,8.3117 z m -302.9129,-37.86411 c 0,-4.61764 -4.6175,-9.23517 -10.1586,-9.23517 -4.6177,0 -6.4647,4.61753 -3.6941,9.23517 2.7705,5.54109 7.3881,9.23516 10.1586,9.23516 1.8471,0 3.6941,-3.69407 3.6941,-9.23516 z m 428.5109,-23.08796 c 24.0115,-18.47023 14.7763,-25.85836 -63.7225,-54.48731 l -64.6461,-24.01141 48.0229,46.1757 c 25.8583,24.93499 50.7932,46.17581 55.4108,46.17581 3.6941,0 15.6998,-6.46466 24.9349,-13.85279 z M 1151.1564,412.35317 c 45.2521,-11.0822 49.8698,-15.69973 31.3994,-36.0171 -19.3937,-21.24084 -19.3937,-28.62895 -1.847,-48.94629 13.8527,-13.85272 11.0822,-17.54678 -36.0171,-44.32871 -28.6289,-15.69976 -53.5638,-28.62896 -57.2579,-28.62896 -2.7705,0 7.3882,14.77624 23.0879,32.32301 34.17,38.78764 36.0171,62.79902 8.3117,82.19284 -45.2523,31.39955 -145.91538,9.23514 -253.9667,-55.4109 -28.62896,-17.54678 -56.33441,-31.39951 -61.87549,-31.39951 -19.39382,0 39.71113,49.86981 109.89827,93.27502 69.26374,43.40516 76.65174,45.25219 138.52722,45.25219 35.0937,0 80.3458,-3.69406 99.7397,-8.31159 z m 156.9975,-56.33443 c 34.17,-12.00569 61.8755,-24.9349 61.8755,-29.55247 0,-3.69406 -3.6941,-7.38812 -8.3116,-7.38812 -4.6176,0 -15.6998,-6.4646 -23.088,-14.77624 -12.9291,-12.9292 -16.6231,-12.9292 -35.0935,0 -11.0822,8.31164 -33.2466,14.77624 -48.9463,14.77624 -26.7819,0 -28.6289,2.77054 -28.6289,32.32302 0,19.39381 3.694,31.39952 10.1586,29.55248 4.6176,-1.84703 36.9406,-12.9292 72.0342,-24.93491 z m 1080.5125,-50.79331 c 72.9576,-94.19853 186.55,-174.54432 273.3604,-193.01463 37.8641,-8.31163 156.074,16.62328 244.7314,50.79333 60.952,23.08787 79.4223,26.78193 93.275,18.47029 9.2352,-5.54109 29.5526,-10.15866 45.2523,-10.15866 h 28.6289 L 3049.903,142.6868 c -12.9291,-15.69976 -24.0113,-36.01708 -24.0113,-46.175749 0,-13.85273 -6.4647,-17.54678 -32.323,-17.54678 -18.4704,0 -46.1758,6.4646 -60.952,14.77624 -29.5525,14.776239 -38.7877,13.852719 -144.0683,-11.08219 -45.2523,-11.08217 -62.799,-11.08217 -77.5753,-2.77054 -20.3174,10.15866 -110.8219,7.38812 -166.2327,-6.4646 -16.6233,-3.69406 -28.629,0 -39.7112,10.15866 -14.7762,15.69976 -17.5467,15.69976 -52.6403,0 -19.3938,-9.23514 -36.017,-22.16436 -36.017,-29.55247 0,-6.46461 -3.6941,-12.0057 -9.2352,-12.0057 -20.3174,0 -7.3881,41.55817 27.7054,84.963369 20.3173,25.85842 36.9406,49.86981 36.9406,54.48738 0,12.0057 -39.7111,45.25224 -54.4874,45.25224 -7.3881,0 -24.9349,11.08217 -38.7876,24.01138 -27.7054,26.78194 -45.2522,23.08788 -45.2522,-9.23514 0,-14.77624 -9.2352,-24.93491 -32.323,-36.01709 -43.4052,-21.24084 -48.9463,-19.39381 -25.8585,5.54109 10.1587,11.08218 25.8585,34.17005 34.1701,50.79333 16.6233,32.32301 11.0822,49.8698 -22.1644,70.18713 -11.0821,7.38812 -10.1586,10.15866 4.6176,15.69976 41.5582,15.69974 57.2579,9.23514 96.9691,-42.48169 z m 840.3986,13.85272 c -25.8585,-23.08787 -50.7934,-36.01708 -66.4931,-36.9406 -34.1701,0 -32.323,11.08218 4.6175,31.39951 15.6999,8.31163 39.7112,21.24084 52.6404,28.62896 45.2522,25.85843 49.8698,12.92921 9.2352,-23.08787 z M 1086.5104,340.319 c 0,-8.31164 -57.2581,-67.4166 -65.5696,-67.4166 -3.6941,0 -11.0822,12.92921 -16.6233,29.55248 -8.31158,22.16436 -7.38818,31.39951 0.9235,36.9406 14.7762,9.23514 81.2694,10.15866 81.2694,0.92352 z m 428.5108,-36.01709 c 30.476,-7.38812 59.105,-17.54679 63.7226,-21.24084 3.694,-3.69407 -19.3938,-12.92921 -51.7168,-20.31733 l -59.105,-14.77624 -9.2351,36.01709 c -5.5411,19.39381 -7.3882,35.09356 -5.5411,35.09356 2.7705,0 30.4759,-6.4646 61.8754,-14.77624 z m -71.1106,-56.33441 c 3.6941,-8.31163 -96.9691,-54.48738 -103.4337,-47.09926 -1.8471,1.84703 0,16.62327 1.847,33.24654 4.6176,30.47598 5.5411,30.47598 51.7169,27.70545 25.8584,-1.84704 48.0228,-7.38812 49.8698,-13.85273 z m 233.6493,6.46461 c 11.0822,-6.46461 11.0822,-11.08219 2.7706,-19.39382 -8.3117,-8.31163 -14.7763,-8.31163 -25.8585,0.92352 -26.7819,22.16435 -8.3116,38.78762 23.0879,18.4703 z m 253.9666,0 c -2.7705,-4.61758 -11.0822,-9.23516 -18.4703,-9.23516 -7.3882,0 -15.6998,4.61758 -18.4704,9.23516 -3.6939,5.54108 4.6177,9.23515 18.4704,9.23515 13.8527,0 22.1643,-3.69407 18.4703,-9.23515 z m 1200.5694,-36.01709 c 0,-4.61757 -6.4647,-10.15867 -13.8527,-13.85272 -8.3117,-2.77055 -13.8528,0 -13.8528,8.31163 0,7.38812 6.4647,13.85273 13.8528,13.85273 7.388,0 13.8527,-3.69407 13.8527,-8.31164 z"
         id="path6"
         inkscape:connector-curvature="0"
         sodipodi:nodetypes="cccccccccscsccccscssssscscccccsscsccsccscccsccsscsssscscssscccccscccccccccccccsssccccccccscscsssccscccccscscccscsscccccccccsccccccccccccscccccccscccsssccccscccsccccscccccccsccccccccccsccccscsssscsccccscccsccccccccccccscsccccccccccccccccscsccccccccccccsccccsccsccccsscccscssscccccsccccsccscscccsssscccccccsccccscscccccccccscscccsccccccccccssccccssccccccccccccccscccccscccsscccccsccccccccccscccccccssscccccsccccccccccscssscccsccccsccsccccccccccccccccscsccscsssccccsccssscsccccsccscsccccccccccccccccccsscccccsccsccccccsccccccsccccccscccccccscccccccccscccccsscccscccsccscccccscsccccsccscsssscsccsccscccccccssccccscccscccccccccccsscccccscccscccccccccscccccsccsscccccccccccscsccccccscscsccccssccccccccccccsccssscccccscccsccccccsscssccccscccccscccscsccssccsscccccssccssccccccsscsscscccccccccscssccscccccscccccccscccscscscsss"
         style="stroke-width:1" />
      <path
         d="m 2977.8689,1125.3067 c -10.1587,-15.6998 24.0114,-73.8812 42.4817,-73.8812 21.2408,0 22.1644,8.3116 1.847,50.7934 -14.7762,31.3994 -33.2466,41.558 -44.3287,23.0878 z"
         id="path8"
         inkscape:connector-curvature="0"
         style="stroke-width:1" />
      <path
         d="m 3116.3962,1088.3661 c -39.7112,-24.0114 -78.4989,-68.3401 -113.5924,-129.29211 -29.5525,-51.71681 -46.1758,-60.95198 -69.2636,-39.7112 -12.0057,11.0822 -18.4704,12.0058 -26.782,3.6941 -8.3116,-8.3116 -13.8527,-6.4645 -24.0114,7.3881 -11.0821,13.8527 -15.6997,14.7763 -24.9349,6.4646 -14.7762,-14.7762 2.7706,-58.18137 24.0115,-58.18137 7.3881,0 13.8526,-7.38813 13.8526,-16.62329 0,-25.85846 10.1588,-31.39955 24.0115,-12.92923 11.0822,13.85269 12.0056,8.3117 12.9292,-39.71115 0,-30.47598 2.7705,-64.64603 5.5411,-75.72823 5.541,-20.31726 3.6941,-21.24082 -48.0229,-21.24082 -48.0227,-0.92347 -52.6402,-1.84704 -37.8641,-12.92923 15.6999,-12.00566 43.4052,-16.62319 203.1733,-29.55242 61.8755,-5.5411 71.1107,-3.69406 71.1107,9.23516 0,8.3116 -3.6941,14.77616 -8.3116,14.77616 -5.5411,0 -5.5411,11.0822 0,29.55252 4.6175,16.6233 8.3116,42.48165 8.3116,56.33444 0,14.77616 9.2352,39.71115 20.3174,54.48731 17.5467,25.85846 20.3172,26.78203 31.3994,12.92923 9.2352,-13.85269 15.6997,-13.85269 48.9463,-3.69407 21.2409,6.46467 37.8641,16.6233 37.8641,23.08786 0,9.23516 -72.9577,30.47609 -107.1277,30.47609 -7.3881,0 -24.9349,12.92912 -37.8642,28.62894 -13.8526,15.6997 -31.3994,31.3995 -40.6346,35.0935 -12.0056,3.6941 -14.7762,9.2352 -8.3116,19.3938 7.3882,12.0058 12.0057,12.0058 36.0171,-2.7705 14.7762,-8.3117 31.3995,-15.6997 36.9406,-15.6997 15.6997,0 12.0056,27.7054 -3.6941,33.2465 -31.3994,12.00561 -33.2465,36.94061 -4.6175,68.34011 44.3287,49.8697 36.0171,60.0285 -19.3938,24.9349 z M 3009.2684,809.46455 c -2.7705,-7.38813 -8.3116,-13.85269 -12.9292,-13.85269 -9.2352,0 -11.0822,22.16439 -2.7705,30.47599 10.1586,10.15862 22.1643,-2.7705 15.6997,-16.6233 z m 52.6404,-60.0284 c 0,-35.09362 -3.6941,-46.17582 -13.8527,-46.17582 -7.3882,0 -13.8528,5.5411 -13.8528,12.00577 0,16.62319 18.4703,80.34576 23.0878,80.34576 2.7706,0 4.6177,-20.31736 4.6177,-46.17571 z"
         id="path10"
         inkscape:connector-curvature="0"
         style="stroke-width:1" />
      <path
         d="m 2950.1635,1023.72 c -6.4647,-2.7705 -12.0057,-10.1586 -12.0057,-17.5467 0,-10.15871 8.3116,-12.92931 30.476,-11.08221 15.6997,1.847 28.6289,6.46461 27.7054,12.00561 -1.8471,11.0822 -31.3995,21.241 -46.1757,16.6233 z"
         id="path12"
         inkscape:connector-curvature="0"
         style="stroke-width:1" />
      <path
         d="m 1509.4801,4874.7773 c -27.7054,-35.0935 -35.0935,-84.9634 -12.0057,-84.9634 19.3938,0 43.4053,51.7169 39.7112,86.8104 l -2.7705,31.3996 z"
         id="path14"
         inkscape:connector-curvature="0"
         style="fill:#000000;fill-opacity:1;stroke-width:1" />
      <path
         d="m 1758.8292,4856.307 c -15.6997,-5.5411 -132.0627,-145.9154 -132.0627,-157.9211 0,-5.5411 -6.4645,-13.8526 -14.7761,-18.4703 -16.6233,-9.235 -22.1644,-67.4165 -7.3882,-72.9576 6.4646,-1.847 37.8641,36.9405 71.1106,86.8104 33.2466,49.8698 72.9578,102.5102 88.6575,117.2864 39.7111,37.8641 36.9405,62.799 -5.5411,45.2522 z"
         id="path16"
         inkscape:connector-curvature="0"
         style="fill:#000000;fill-opacity:1;stroke-width:1" />
      <path
         d="m 1352.4826,4625.4283 c -8.3117,-23.0878 -2.7706,-27.7055 75.7283,-69.2637 38.7876,-20.3173 87.7339,-51.7168 107.1277,-68.3401 l 36.017,-31.3994 -14.7762,-113.5924 c -9.2352,-62.799 -15.6997,-117.2864 -15.6997,-120.9804 0,-3.6941 -24.0115,-13.8527 -52.6404,-22.1644 -41.5582,-12.0057 -74.8047,-14.7762 -152.38,-10.1587 -84.9634,4.6176 -107.1276,9.2352 -158.8446,34.1701 -73.8812,35.0935 -100.6631,65.5696 -92.3514,105.2806 12.0057,58.1815 38.7876,99.7397 112.6688,176.3914 75.7282,77.5753 84.0398,90.5045 66.4931,101.5867 -15.6997,10.1586 -167.1562,-144.0684 -190.2441,-193.9381 -63.7225,-134.8332 2.7705,-226.2613 188.397,-258.5843 73.8812,-12.9291 98.8161,-12.9291 217.026,4.6177 103.4337,15.6997 104.3572,16.6232 110.8219,156.9975 5.5411,109.8983 4.6175,122.8274 -14.7763,164.3856 -22.1644,48.9463 -47.0993,73.8812 -123.751,120.057 -62.799,37.8641 -90.5045,45.2522 -98.8161,24.9349 z"
         id="path18"
         inkscape:connector-curvature="0"
         style="fill:#000000;fill-opacity:1;stroke-width:1" />
      <path
         d="m 1703.4183,4560.7823 c -8.3117,-8.3117 -12.9292,-21.241 -10.1587,-28.629 2.7706,-7.3881 5.5411,-15.6998 5.5411,-17.5468 0,-5.5411 48.0228,-4.6176 71.1107,1.847 24.9349,6.4647 37.8641,39.7111 20.3172,50.7933 -21.2408,12.9293 -70.1871,9.2352 -86.8103,-6.4645 z"
         id="path20"
         inkscape:connector-curvature="0"
         style="fill:#000000;fill-opacity:1;stroke-width:1" />
      <path
         d="m 753.1214,4523.8416 c -7.38812,-13.8527 2.77055,-29.5524 61.8755,-92.3515 69.26362,-73.8811 98.81615,-90.5044 108.97477,-61.8754 7.38815,17.5467 -0.92356,26.7819 -89.58096,107.1276 -64.64604,58.1815 -72.95768,62.799 -81.26931,47.0993 z"
         id="path22"
         inkscape:connector-curvature="0"
         style="fill:#000000;fill-opacity:1;stroke-width:1" />
      <path
         d="m 1758.8292,4283.7278 c -10.1586,-14.7763 3.6941,-54.4874 18.4703,-54.4874 7.3881,0 20.3173,-12.9292 28.629,-28.629 11.0822,-23.0878 16.6233,-26.7819 23.0878,-16.6233 22.1644,36.0171 -5.5411,109.8983 -42.4816,109.8983 -12.0058,0 -24.935,-4.6175 -27.7055,-10.1586 z"
         id="path24"
         inkscape:connector-curvature="0"
         style="fill:#000000;fill-opacity:1;stroke-width:1" />
      <path
         d="m 1574.1262,3997.4382 c -2.7706,-6.4647 -6.4646,-48.0229 -9.2351,-91.4281 -1.8471,-43.4051 -5.5411,-84.0398 -7.3882,-91.428 -1.847,-7.3881 3.6941,-13.8527 12.0057,-15.6997 10.1586,-2.7705 17.5468,7.3881 24.9349,32.323 12.0058,38.7877 14.7763,138.5273 5.5411,162.5387 -6.4646,17.5468 -21.2408,19.3938 -25.8584,3.6941 z"
         id="path26"
         inkscape:connector-curvature="0"
         style="fill:#000000;fill-opacity:1;stroke-width:1" />
      <path
         d="m 1241.6608,3895.8515 c -5.5411,-6.4646 -18.4702,-29.5524 -30.476,-50.7934 -12.0057,-22.1643 -24.9349,-39.7111 -29.5524,-39.7111 -3.6941,0 -7.3881,-4.6176 -7.3881,-10.1587 0,-5.541 9.2351,-8.3115 20.3172,-6.4645 24.0114,3.6941 81.2693,74.8047 81.2693,100.6631 0,19.3938 -21.2408,23.0879 -34.17,6.4646 z"
         id="path28"
         inkscape:connector-curvature="0"
         style="fill:#000000;fill-opacity:1;stroke-width:1" />
      <path
         d="m 854.70805,3812.7351 c -51.71684,-70.1871 -54.48739,-76.6517 -30.476,-76.6517 17.54678,0 59.10495,39.7112 92.35149,89.5809 24.93488,36.0171 25.85848,48.9463 1.84704,48.9463 -12.00566,0 -34.17006,-22.1643 -63.72253,-61.8755 z"
         id="path30"
         inkscape:connector-curvature="0"
         style="fill:#000000;fill-opacity:1;stroke-width:1" />
      <path
         d="m 1130.839,2639.8712 c -34.17,-48.9463 -67.4166,-126.5216 -61.8755,-147.7624 8.3117,-33.2465 46.1758,-53.5639 74.8048,-40.6346 34.17,15.6997 40.6346,12.9292 40.6346,-16.6233 0,-13.8527 8.3117,-36.9406 18.4703,-49.8698 10.1586,-12.9292 18.4703,-25.8585 18.4703,-28.629 0,-2.7706 -20.3173,-15.6998 -46.1758,-28.6289 -24.9349,-12.9293 -52.6403,-33.2466 -60.952,-46.1758 -16.6233,-24.9349 -10.1586,-60.0284 11.0822,-60.0284 22.1644,0 13.8527,-12.0058 -42.4816,-60.0286 -66.4931,-56.3344 -88.65748,-103.4337 -79.4223,-168.0797 2.7705,-24.0113 13.8527,-51.7168 24.0113,-62.799 10.1587,-11.0822 18.4703,-24.9349 18.4703,-30.476 0,-6.4646 14.7763,-20.3174 32.3231,-30.476 55.4108,-33.2465 36.9406,-65.5695 -24.9349,-44.3287 -58.18148,19.3938 -115.43948,-5.5411 -237.34339,-104.3572 -119.13342,-95.122 -144.99184,-132.9861 -133.90966,-194.8616 4.61758,-21.2409 6.4646,-53.5639 4.61758,-72.0342 -3.69407,-47.0993 23.08786,-77.5753 60.95198,-69.2636 33.24654,7.3881 102.51015,65.5695 121.90397,101.5866 22.16436,40.6346 30.47599,27.7055 26.78194,-37.8641 -2.77055,-48.0227 -8.31164,-70.1871 -24.93491,-92.3515 -16.62326,-22.1643 -20.31733,-36.0171 -15.69976,-60.0284 8.31164,-40.6347 17.54679,-50.7934 93.27507,-104.3572 53.56378,-38.7877 60.95198,-47.0993 43.4052,-48.9463 -26.7819,-3.6941 -25.8585,-16.6233 2.7705,-35.0936 35.09358,-23.0879 66.49308,-84.0399 78.49878,-151.45641 19.3938,-108.05125 25.8584,-206.86734 17.5468,-263.20178 -3.6941,-30.47599 -10.1586,-74.80477 -12.9292,-97.89263 -3.6941,-32.32302 -10.1587,-44.32868 -23.0879,-48.02274 -40.6346,-10.15863 -4.6175,-45.25225 57.2579,-56.33444 38.7877,-7.38813 48.0228,1.84703 36.0171,34.17005 -6.4646,16.62329 -4.6175,26.78192 6.4647,38.78768 8.3116,9.23516 11.0821,13.85269 4.6175,10.15863 -19.3938,-10.15863 -21.2408,8.3117 -11.0822,115.43938 10.1587,105.28065 8.3117,126.52158 -21.2408,301.06585 -5.5411,33.24651 -18.4704,69.26361 -31.3996,86.81041 -26.7819,36.017 -26.7819,39.7111 -5.5411,31.3995 8.3117,-3.694 48.9463,-15.6997 89.581,-26.7819 l 73.8812,-20.3174 15.6998,-47.0992 c 21.2408,-64.64611 35.0935,-183.77952 26.7819,-231.80227 -5.5411,-26.78192 -2.7705,-68.3401 9.2352,-130.21564 12.0056,-65.5695 13.8527,-100.66312 8.3116,-121.90395 -4.6176,-16.62329 -6.4646,-39.71114 -3.6941,-51.7168 4.6176,-17.54676 12.0058,-21.24083 37.8641,-21.24083 h 32.323 l -6.4645,95.12203 c -3.6941,51.71681 -10.1587,113.59235 -14.7763,137.60367 -3.6941,23.08795 -7.3881,93.27509 -7.3881,154.22706 0,92.35142 -3.6941,121.90392 -22.1643,176.39133 l -21.2409,64.6461 20.3173,13.8527 c 11.0822,7.3881 47.0993,40.6347 79.4223,73.8812 l 58.1815,60.0285 -0.9236,-112.6689 c -1.847,-99.7396 -4.6175,-121.90401 -26.7819,-178.23841 -23.0879,-59.10494 -24.0114,-72.03416 -18.4703,-143.14476 2.7706,-43.40522 6.4646,-126.52158 7.3881,-185.62652 1.847,-112.66878 10.1587,-137.60367 45.2522,-137.60367 17.5468,0 18.4704,6.46456 15.6998,210.5614 -3.6941,205.02031 -2.7705,210.56141 18.4703,255.81355 18.4703,37.8641 22.1644,62.79901 24.0114,138.52721 0.9235,50.7934 4.6176,106.2042 8.3116,122.8275 5.5411,21.2409 2.7706,36.9407 -7.3881,52.6404 -13.8527,21.2408 -13.8527,24.9349 13.8527,63.7225 34.17,48.0228 40.6347,114.5159 14.7762,153.3035 -14.7762,24.0114 -14.7762,24.0114 28.629,47.0993 32.323,17.5467 43.4052,28.6289 43.4052,44.3286 0,36.9407 -26.7819,45.2523 -69.2636,22.1644 -19.3937,-12.0056 -39.7111,-21.2408 -45.2522,-21.2408 -4.6176,0 -8.3117,19.3938 -7.3881,44.3287 1.847,42.4817 0.9234,44.3288 -36.9406,62.799 -21.2409,11.0822 -52.6404,31.3996 -69.2637,45.2522 -24.9348,21.2409 -36.017,24.0115 -69.2636,20.3174 -21.2408,-1.847 -65.5695,-17.5468 -97.8925,-35.0936 l -59.105,-30.476 -45.2522,14.7763 c -25.8585,8.3117 -48.9463,22.1644 -54.4874,33.2465 -5.5411,10.1587 -15.6998,24.9349 -22.1644,33.2465 -21.2409,25.8585 20.3173,18.4704 45.2522,-8.3116 12.0058,-12.9292 27.7055,-23.0878 35.0936,-23.0878 16.6233,0 37.8642,26.7819 38.7876,48.0227 0,17.5468 0.9236,17.5468 120.9805,38.7876 43.4052,7.3881 103.4337,24.0114 133.9097,37.8641 50.7932,22.1644 54.4873,23.088 65.5695,8.3117 6.4647,-9.2351 12.0058,-30.476 12.0058,-48.0228 0,-31.3995 0,-32.323 -18.4704,-15.6998 -12.0057,11.0822 -24.9348,13.8528 -41.5581,10.1588 l -24.0115,-6.4647 35.0937,-41.5582 c 36.017,-44.3286 118.2098,-111.7453 164.3855,-134.8331 38.7877,-19.3938 111.7454,-27.7054 152.3801,-16.6233 18.4702,4.6176 59.1049,25.8584 90.5044,46.1758 l 57.258,36.9405 v -31.3994 c 0,-17.5469 -6.4647,-63.7226 -14.7763,-102.5102 -14.7762,-71.1107 -13.8528,-96.0456 4.6176,-166.2327 5.541,-20.3174 12.0057,-48.9463 14.7762,-62.799 3.6941,-20.3174 9.2352,-25.8585 24.9349,-23.0879 14.7763,1.8471 23.0879,12.9293 31.3996,39.7112 5.5411,20.3172 29.5524,81.2693 53.5638,135.7566 48.0227,109.8983 58.1815,161.6151 43.4052,214.2555 -8.3117,31.3995 -6.4647,38.7877 8.3116,59.1049 10.1587,12.0058 18.4703,32.323 18.4703,43.4052 0,11.0822 12.9293,57.258 28.629,102.5102 33.2466,93.275 43.4052,175.4679 24.9349,199.4792 -18.4704,24.935 -29.5524,10.1587 -60.952,-80.3458 -35.0935,-100.6631 -57.2579,-204.0968 -50.7933,-238.2668 4.6176,-21.2409 1.847,-24.9349 -17.5468,-24.9349 -20.3174,0 -24.0114,4.6176 -29.5525,42.4817 -2.7705,24.0113 -2.7705,84.0398 0,133.9096 6.4646,97.8926 -4.6176,150.533 -31.3995,144.9919 -24.0114,-4.6176 -32.323,-61.8755 -26.7819,-201.3262 4.6175,-120.9805 3.6941,-130.2157 -8.3117,-102.5102 l -12.9291,30.476 -40.6347,-36.9406 c -70.1872,-64.6461 -109.8983,-85.8869 -169.0033,-91.428 -46.1757,-3.6941 -58.1814,-1.847 -84.9634,17.5468 -36.9405,24.9348 -38.7875,28.6289 -64.646,115.4393 -11.0822,36.9407 -26.7819,72.9578 -34.17,80.3458 -12.0057,12.0058 -7.3882,19.3939 34.17,58.1815 52.6404,49.8698 72.9577,82.1928 72.9577,120.0569 0,77.5753 -115.4393,219.7966 -227.1847,280.7485 -65.5696,36.0171 -67.4166,37.8641 -66.493,72.0342 0,19.3939 -6.4647,46.1758 -15.6998,59.1049 -14.7762,23.088 -14.7762,24.935 8.3116,48.0229 18.4704,17.5467 24.0115,33.2465 24.0115,61.8754 v 37.8641 l -36.0171,-6.4645 c -30.476,-4.6176 -43.4052,-0.9236 -71.1107,17.5467 -18.4703,12.9293 -40.6346,23.0879 -48.9463,23.0879 -8.3116,0 -24.0114,2.7706 -34.1701,5.5411 -14.7761,3.6941 -24.9349,-1.847 -38.7876,-21.2408 z m 338.9301,-401.7291 c 31.3994,-35.0935 29.5524,-44.3286 -9.2352,-44.3286 -24.9349,0 -26.7819,1.847 -26.7819,36.9405 0,20.3174 1.847,36.9407 4.6175,36.9407 2.7705,0 16.6233,-13.8527 31.3996,-29.5526 z m 97.8925,-144.9918 c -9.2352,-14.7762 -23.0879,-2.7706 -23.0879,20.3174 0,18.4702 0.9235,18.4702 14.7763,4.6175 8.3116,-8.3116 12.0056,-19.3938 8.3116,-24.9349 z m -200.4027,-412.8112 c 11.0821,-3.694 20.3173,-10.1586 20.3173,-16.6232 0,-13.8528 -111.7454,-64.6461 -119.1335,-54.4874 -2.7705,5.5411 -13.8527,13.8527 -24.0113,19.3938 -16.6233,9.2352 -13.8528,12.0057 32.323,33.2466 54.4874,25.8584 59.1049,26.7819 90.5045,18.4702 z m -330.6184,-71.1106 c 0,-20.3173 -7.3882,-37.8641 -22.1643,-51.7168 -26.78198,-24.935 -36.01708,-14.7762 -24.01138,26.7819 16.62328,58.1814 46.17568,73.8812 46.17568,24.9349 z m 978.9258,0.9235 c -2.7705,-7.3881 -5.5411,-4.6175 -5.5411,5.5411 -0.9235,10.1587 1.847,15.6998 4.6176,12.0058 2.7705,-2.7706 3.6941,-11.0822 0.9235,-17.5469 z m -634.4547,-275.2074 c -5.5411,-10.1587 -16.6233,-18.4703 -25.8585,-18.4703 -12.0056,0 -11.0822,3.694 7.3882,18.4703 28.6289,23.0878 30.476,23.0878 18.4703,0 z m -27.7055,-89.581 c 0,-4.6175 -14.7763,-19.3938 -32.323,-33.2466 -40.6346,-32.323 -42.4817,-24.0113 -2.7705,12.9293 32.323,28.6289 35.0935,30.476 35.0935,20.3173 z"
         id="path32"
         inkscape:connector-curvature="0"
         style="stroke-width:1" />
      <path
         d="m 4076.8517,2085.7622 c -11.0822,-24.9349 -22.1644,-61.8755 -24.9349,-84.0398 -4.6176,-39.7112 -3.6941,-40.6347 21.2408,-36.9407 22.1644,2.7706 27.7054,9.2352 43.4052,61.8756 29.5525,97.8925 -2.7706,144.9918 -39.7111,59.1049 z"
         id="path34"
         inkscape:connector-curvature="0"
         style="stroke-width:1" />
      <path
         d="m 4344.671,1236.1285 c -34.1701,-29.5525 -50.7933,-60.0284 -43.4052,-78.4988 2.7706,-9.2351 -1.8471,-16.6233 -12.9292,-19.3938 -10.1587,-3.694 -25.8584,-21.2409 -34.1701,-39.7111 -11.0822,-22.1644 -18.4702,-29.5525 -23.0879,-21.2409 -9.2351,14.7762 -101.5865,-25.8584 -101.5865,-45.2522 0,-12.0057 1.847,-12.0057 79.4222,5.541 16.6232,3.6941 20.3173,0 24.0114,-28.6289 l 3.694,-33.24651 h -85.8868 c -82.1929,0 -86.8104,0.9234 -95.122,22.1644 -4.6177,12.00561 -17.5469,28.62891 -28.629,36.94051 -26.782,18.4703 -46.1758,3.6941 -43.4052,-30.476 2.7705,-22.16441 -0.9236,-24.01141 -38.7877,-28.62891 -34.17,-3.6941 -41.5582,-8.3117 -41.5582,-23.0879 0,-17.5468 7.3882,-18.4703 249.3491,-21.2408 305.6834,-3.6941 403.576,2.7705 399.882,24.0113 -2.7706,13.8527 -21.2409,15.6997 -135.7567,18.4703 -131.1391,2.7705 -132.0627,2.7705 -127.4451,23.0879 29.5524,142.22131 28.629,138.52721 68.3401,175.46791 40.6346,36.9405 48.9463,60.952 27.7054,78.4987 -8.3116,7.3882 -19.3938,2.7705 -40.6346,-14.7762 z"
         id="path36"
         inkscape:connector-curvature="0"
         style="stroke-width:1" />
      <path
         d="m 4150.7329,1245.3636 c 0,-17.5467 27.7054,-63.7225 62.799,-105.2806 27.7054,-34.1701 29.5524,-34.1701 29.5524,-12.9293 0,29.5525 -56.3343,123.751 -76.6517,127.4451 -8.3116,1.847 -15.6997,-2.7706 -15.6997,-9.2352 z"
         id="path38"
         inkscape:connector-curvature="0"
         style="stroke-width:1" />
      <path
         d="m 564.72435,1023.72 c -14.77624,-13.8527 -4.61757,-38.78761 31.39951,-75.72821 36.01708,-36.94055 36.94059,-39.71115 22.16435,-55.41087 -8.31162,-9.23517 -18.47029,-32.32302 -24.01138,-49.86978 -8.31163,-30.47599 -12.0057,-33.24659 -52.64035,-38.78768 -80.3458,-11.0822 -94.19852,-14.77616 -94.19852,-29.55242 0,-12.00577 6.4646,-12.92923 35.09357,-8.3117 18.47029,3.69406 144.06832,8.3117 278.9015,11.08219 134.83319,3.69407 246.57847,7.38813 249.34907,10.15874 2.7705,1.84703 -3.694,10.15862 -13.85278,17.54675 -15.6997,12.00566 -45.2522,12.92923 -181.93242,7.38813 -95.12204,-3.69406 -164.38566,-2.7706 -164.38566,1.84704 0,4.61753 11.08218,18.47022 23.08787,30.47598 29.55248,27.70539 29.55248,44.32868 -2.77054,62.79901 -14.77624,8.31161 -37.86412,35.09351 -50.79332,58.18151 -26.78193,47.09911 -46.17575,68.34011 -55.4109,58.18131 z"
         id="path40"
         inkscape:connector-curvature="0"
         style="stroke-width:1" />
      <path
         d="m 712.48674,894.42795 c -6.4646,-7.38813 10.15866,-42.48165 24.9349,-51.71681 35.09357,-23.08786 44.32872,6.46456 12.0057,36.94055 -23.08787,22.16439 -27.70544,24.01142 -36.9406,14.77626 z"
         id="path42"
         inkscape:connector-curvature="0"
         style="stroke-width:1" />
      <path
         d="m 1611.0668,866.72246 c -33.2465,-2.7705 -44.3287,-7.38803 -44.3287,-18.47022 0,-12.92923 12.0057,-13.8528 93.275,-9.23517 95.122,4.61753 114.5158,10.15863 91.428,24.93489 -13.8527,9.23517 -53.5639,9.23517 -140.3743,2.7705 z"
         id="path44"
         inkscape:connector-curvature="0"
         style="stroke-width:1" />
      <path
         d="m 2229.8218,783.6062 c 1.847,-11.0822 15.6997,-19.39389 39.7111,-24.93499 20.3174,-3.69396 65.5696,-15.69973 99.7397,-25.85835 83.1163,-23.08786 154.2269,-31.39956 154.2269,-18.47033 0,20.31736 -42.4816,36.01708 -147.7624,56.33444 -58.1814,11.0822 -115.4393,22.16429 -127.445,24.93489 -17.5468,3.69407 -21.2408,0.92346 -18.4703,-12.00566 z"
         id="path46"
         inkscape:connector-curvature="0"
         style="stroke-width:1" />
      <path
         d="m 3393.4507,153.76897 c -24.935,-24.93489 -41.5582,-35.09356 -44.3288,-27.70544 -2.7705,5.54108 -12.9293,11.08218 -22.1643,11.08218 -14.7763,0 -18.4703,-5.5411 -15.6998,-24.93491 1.847,-19.393809 7.3881,-25.858409 21.2408,-24.011379 10.1587,0.92352 22.1644,-4.61758 25.8584,-12.0057 15.6998,-27.70545 41.5582,-12.92921 75.7283,42.481689 49.8697,82.19283 27.7055,101.58664 -40.6346,35.09356 z"
         id="path56"
         inkscape:connector-curvature="0"
         style="stroke-width:1" />
      <path
         d="m 3513.5076,135.29868 c -24.9349,-40.634659 -21.2409,-66.493079 10.1586,-70.187139 26.7819,-2.77054 36.0171,13.85273 36.0171,70.187139 0,20.31733 -4.6175,29.55248 -13.8527,29.55248 -7.3881,0 -22.1644,-13.85272 -32.323,-29.55248 z"
         id="path60"
         inkscape:connector-curvature="0"
         style="stroke-width:1" />
      <path
         d="m 1888.1213,147.30437 c -10.1587,-16.62326 16.6233,-56.334409 37.8641,-56.334409 28.6289,0 39.7111,35.093569 16.6233,52.640359 -19.3938,13.85272 -46.1758,15.69974 -54.4874,3.69405 z"
         id="path62"
         inkscape:connector-curvature="0"
         style="stroke-width:1" />
      <path
         d="m 3245.6883,122.36947 c 2.7705,-8.31163 5.5411,-16.62327 5.5411,-18.4703 0,-1.84703 6.4645,-3.69406 14.7761,-3.69406 10.1587,0 12.9292,4.61757 9.2352,14.77624 -2.7705,8.31164 -5.5411,16.62326 -5.5411,18.4703 0,1.84703 -6.4646,3.69406 -14.7762,3.69406 -10.1587,0 -12.9292,-4.61758 -9.2351,-14.77624 z"
         id="path64"
         inkscape:connector-curvature="0"
         style="stroke-width:1" />
    </g>
  </g>
</svg>
